<svg xmlns="http://www.w3.org/2000/svg" xmlns:xlink="http://www.w3.org/1999/xlink" width="1244" height="450" viewBox="0 0 1244 450">
  <defs>
    <linearGradient id="linear-gradient" x1="0.5" x2="0.5" y2="1" gradientUnits="objectBoundingBox">
      <stop offset="0" stop-color="#ff338d"/>
      <stop offset="1" stop-color="#f6a"/>
    </linearGradient>
    <clipPath id="clip-Readme_logo_2">
      <rect width="1244" height="450"/>
    </clipPath>
  </defs>
  <g id="Readme_logo_2" data-name="Readme logo – 2" clip-path="url(#clip-Readme_logo_2)">
    <rect width="1244" height="450" fill="#161616"/>
    <g id="button.16de7c2c" transform="translate(134.3 -126.672)" opacity="0.134">
      <path id="Path_1" data-name="Path 1" d="M-960.471,853-299.263-292.208,361.894,853Z" fill="#818285"/>
      <path id="Path_2" data-name="Path 2" d="M85.373,264.03,746.58-881.183,1407.736,264.03Z" fill="#818285"/>
      <path id="Path_3" data-name="Path 3" d="M-299.289,561.812,361.919-583.4,1023.078,561.812Z" fill="#231f20"/>
      <path id="Path_4" data-name="Path 4" d="M632.508,978.83,1293.715-166.382,1954.871,978.83Z" fill="#595a5c"/>
      <path id="Path_5" data-name="Path 5" d="M-161.082,1584.527,500.125,439.316l661.158,1145.211Z" fill="#595a5c"/>
      <path id="Path_6" data-name="Path 6" d="M-328.3,295.049l251.1-434.9,251.079,434.9Z" fill="#a8aaad"/>
      <path id="Path_7" data-name="Path 7" d="M-118.13,1266.971,132.958,832.064l251.078,434.907Z" fill="#a8aaad"/>
      <path id="Path_8" data-name="Path 8" d="M406.134,506.237l251.091-434.9L908.3,506.237Z" fill="#595a5c"/>
      <path id="Path_9" data-name="Path 9" d="M867.959,1168.555l251.1-434.9,251.078,434.9Z" fill="#a8aaad"/>
      <path id="Path_10" data-name="Path 10" d="M376.862,1518.838,502.412,1301.4l125.539,217.442Z" fill="#595a5c"/>
      <path id="Path_11" data-name="Path 11" d="M-255.47,1139.488l251.092-434.9,251.084,434.9Z" fill="#818285"/>
      <path id="Path_12" data-name="Path 12" d="M816.34,704.582,941.885,487.144,1067.42,704.582Z" fill="#231f20"/>
      <path id="Path_13" data-name="Path 13" d="M216.428,947.4l251.1-434.9L718.6,947.4Z" fill="#231f20"/>
      <path id="Path_14" data-name="Path 14" d="M377.979-308.579,191.407,14.571H693.568L507.016-308.579Z" fill="#818285"/>
      <path id="Path_15" data-name="Path 15" d="M928.3-308.579,867.279-202.891h251.086l-61.017-105.688Z" fill="#818285"/>
      <path id="Path_16" data-name="Path 16" d="M222.458,760.283l251.091-434.9,251.072,434.9Z" fill="#595a5c"/>
      <path id="Path_17" data-name="Path 17" d="M706.383,868,957.477,433.1,1208.559,868Z" fill="#818285"/>
      <path id="Path_18" data-name="Path 18" d="M-36.8,1021.67,87.321,806.676,211.444,1021.67Z" fill="#595a5c"/>
      <path id="Path_19" data-name="Path 19" d="M423.733,177.447l124.126-215,124.12,215Z" fill="#a8aaad"/>
      <path id="Path_20" data-name="Path 20" d="M827.541,147.808,951.668-67.187l124.117,214.995Z" fill="#231f20"/>
      <path id="Path_21" data-name="Path 21" d="M-62.491,770.746-.428,663.25l62.059,107.5Z" fill="#818285"/>
      <path id="Path_22" data-name="Path 22" d="M439.052,1519.152l62.065-107.492,62.063,107.492Z" fill="#595a5c"/>
      <path id="Path_23" data-name="Path 23" d="M656.309,1116.625l62.064-107.492,62.059,107.492Z" fill="#595a5c"/>
      <path id="Path_24" data-name="Path 24" d="M657.021,640.1,781.148,425.112,905.268,640.1Z" fill="#231f20"/>
      <path id="Path_25" data-name="Path 25" d="M827.539,532.613,951.668,317.622l124.121,214.991Z" fill="#595a5c"/>
      <path id="Path_26" data-name="Path 26" d="M-30.651,118.336,93.478-96.656,217.594,118.336Z" fill="#a8aaad"/>
      <path id="Path_27" data-name="Path 27" d="M-155.588,496.644l124.128-215,124.124,215Z" fill="#a8aaad"/>
      <path id="Path_28" data-name="Path 28" d="M840.939-136.5,903-243.994,965.062-136.5Z" fill="#818285"/>
      <path id="Path_29" data-name="Path 29" d="M258.139,540l62.067-107.488L382.265,540Z" fill="#818285"/>
      <path id="Path_30" data-name="Path 30" d="M196.338,217.77,320.466,2.776,444.583,217.77Z" fill="#818285"/>
      <path id="Path_31" data-name="Path 31" d="M347.372,775.516,471.5,560.521,595.617,775.516Z" fill="#d2d3d4"/>
      <path id="Path_32" data-name="Path 32" d="M681.492,668.014l62.063-107.493,62.058,107.493Z" fill="#a8aaad"/>
      <path id="Path_33" data-name="Path 33" d="M681.492,296.827l62.063-107.492,62.058,107.492Z" fill="#a8aaad"/>
      <path id="Path_34" data-name="Path 34" d="M870.057,929.166,994.186,714.172,1118.3,929.166Z" fill="#a8aaad"/>
      <path id="Path_35" data-name="Path 35" d="M148.823,389.147l124.128-215,124.116,215Z" fill="#a8aaad"/>
      <path id="Path_36" data-name="Path 36" d="M-99.767,578.268l62.058-107.492L24.35,578.268Z" fill="#a8aaad"/>
      <path id="Path_37" data-name="Path 37" d="M-99.767,578.268l62.058-107.492L24.35,578.268Z" fill="#818285"/>
      <path id="Path_38" data-name="Path 38" d="M133.251,617.484l47.3-81.931,47.3,81.931Z" fill="#595a5c"/>
      <path id="Path_39" data-name="Path 39" d="M759.725,458.936,807.027,377l47.3,81.935Z" fill="#a8aaad"/>
      <path id="Path_40" data-name="Path 40" d="M568.055,183.007l47.3-81.934,47.3,81.934Z" fill="#d2d3d4"/>
      <path id="Path_41" data-name="Path 41" d="M920.318,996.82l47.3-81.933,47.3,81.933Z" fill="#d2d3d4"/>
      <path id="Path_42" data-name="Path 42" d="M369.771,658.451l47.3-81.933,47.3,81.933Z" fill="#a8aaad"/>
      <path id="Path_43" data-name="Path 43" d="M46.354,142.04,93.661,60.106l47.3,81.934Z" fill="#595a5c"/>
      <path id="Path_44" data-name="Path 44" d="M712.422,844.75l47.307-81.934,47.3,81.934Z" fill="#595a5c"/>
      <path id="Path_45" data-name="Path 45" d="M-142.86,996.822l47.309-81.933,47.3,81.933Z" fill="#a8aaad"/>
      <path id="Path_46" data-name="Path 46" d="M890.693,264.942,938,183.007l47.3,81.935Z" fill="#818285"/>
      <path id="Path_47" data-name="Path 47" d="M63.131,1124.111l47.306-81.933,47.3,81.933Z" fill="#818285"/>
      <path id="Path_48" data-name="Path 48" d="M339.315,501.782l47.309-81.934,47.3,81.934Z" fill="#595a5c"/>
      <path id="Path_49" data-name="Path 49" d="M400.837,282.56l23.652-40.968L448.14,282.56Z" fill="#595a5c"/>
      <path id="Path_50" data-name="Path 50" d="M275.163,844.75l47.3-81.934,47.3,81.934Z" fill="#231f20"/>
      <path id="Path_51" data-name="Path 51" d="M386.622,996.822l47.3-81.933,47.3,81.933Z" fill="#595a5c"/>
      <path id="Path_52" data-name="Path 52" d="M1430.77,658.471l47.306-81.934,47.3,81.934Z" fill="#595a5c"/>
      <path id="Path_53" data-name="Path 53" d="M569.549,417.971l47.3-81.934,47.3,81.934Z" fill="#d2d3d4"/>
      <path id="Path_54" data-name="Path 54" d="M914.348,1520.453,938,1479.488l23.652,40.965Z" fill="#595a5c"/>
      <path id="Path_55" data-name="Path 55" d="M774.385,976.336l23.65-40.963,23.653,40.963Z" fill="#a8aaad"/>
      <path id="Path_56" data-name="Path 56" d="M1137.707,1034.848l47.3-81.934,47.3,81.934Z" fill="#231f20"/>
      <path id="Path_57" data-name="Path 57" d="M1587.68,932.836l23.652-40.963,23.65,40.963Z" fill="#595a5c"/>
      <path id="Path_58" data-name="Path 58" d="M-41.9,444.109,5.413,362.174l47.3,81.935Z" fill="#595a5c"/>
      <path id="Path_59" data-name="Path 59" d="M-154.184,792.375l47.308-81.934,47.3,81.934Z" fill="#818285"/>
      <path id="Path_60" data-name="Path 60" d="M813.977,729.182l47.306-81.936,47.3,81.936Z" fill="#818285"/>
      <path id="Path_61" data-name="Path 61" d="M941.309,688.211l23.652-40.963,23.65,40.963Z" fill="#a8aaad"/>
      <path id="Path_62" data-name="Path 62" d="M941.309,546.754l23.652-40.964,23.65,40.964Z" fill="#a8aaad"/>
      <path id="Path_63" data-name="Path 63" d="M837.631,608.2l23.65-40.963L884.932,608.2Z" fill="#a8aaad"/>
      <path id="Path_64" data-name="Path 64" d="M832.471,37.594l47.306-81.933,47.3,81.933Z" fill="#818285"/>
      <path id="Path_65" data-name="Path 65" d="M719.178,264.942l47.306-81.935,47.3,81.935Z" fill="#818285"/>
      <path id="Path_66" data-name="Path 66" d="M412.97,33.926l47.307-81.933,47.3,81.933Z" fill="#818285"/>
      <path id="Path_67" data-name="Path 67" d="M342.015-190.985l23.652-40.965,23.65,40.965Z" fill="#818285"/>
      <path id="Path_68" data-name="Path 68" d="M913.658,147.756l47.307-81.934,47.3,81.934Z" fill="#a8aaad"/>
      <path id="Path_69" data-name="Path 69" d="M1095.164,229.69l47.307-81.934,47.3,81.934Z" fill="#595a5c"/>
      <path id="Path_70" data-name="Path 70" d="M930.512,486.13,977.818,404.2l47.3,81.934Z" fill="#d2d3d4"/>
      <path id="Path_71" data-name="Path 71" d="M1292.17,784.289l23.65-40.963,23.651,40.963Z" fill="#595a5c"/>
    </g>
    <path id="rūrusetto" d="M7.2,0h22.05V-41.307c0-9.7,4.41-12.642,10.584-12.642s10.584,2.94,10.584,12.642v.588h22.05v-.441c-.147-22.932-13.23-33.369-32.634-33.369S7.2-63.945,7.2-41.307ZM93.786-86.436h47.04V-101.43H93.786Zm23.52,88.347c21.462,0,35.868-12.495,35.868-36.9V-72.618h-22.05v37.632c0,11.466-5.586,16.317-13.818,16.317s-13.818-4.851-13.818-16.317V-72.618H81.438v37.632C81.438-10.437,95.844,1.911,117.306,1.911ZM167.58,0h22.05V-41.307c0-9.7,4.41-12.642,10.584-12.642S210.8-51.009,210.8-41.307v.588h22.05v-.441c-.147-22.932-13.23-33.369-32.634-33.369S167.58-63.945,167.58-41.307Zm110.1,1.911c21.462,0,35.868-12.495,35.868-36.9V-72.618H291.5v37.632c0,11.466-5.586,16.317-13.818,16.317s-13.818-4.851-13.818-16.317V-72.618h-22.05v37.632C241.815-10.437,256.221,1.911,277.683,1.911Zm78.351,0c18.669,0,31.017-10,31.017-24.99,0-17.2-16.023-19.992-26.46-21.462-6.762-1.029-12.054-1.617-12.054-6.027,0-2.94,2.205-5.733,7.644-5.733,4.41,0,7.35,1.911,7.938,5.292h21.462c-.441-13.083-11.613-23.52-29.694-23.52s-29.694,10.29-29.694,24.99c0,17.493,16.464,19.992,26.46,21.462,6.762,1.029,12.054,1.47,12.054,6.321,0,3.087-2.2,5.439-8.967,5.439-6.027,0-8.82-1.911-8.967-5.733H325.017C325.311-8.085,337.365,1.911,356.034,1.911Zm78.645,0c18.081,0,31.9-10,36.6-24.99H448.5c-2.793,3.969-7.5,5.292-13.818,5.292-7.938,0-14.406-3.822-16.17-12.348H473.34v-6.174c0-22.05-15.729-38.22-38.661-38.22s-39.1,16.17-39.1,38.22S411.747,1.911,434.679,1.911ZM418.95-44.1c2.205-7.35,8.085-10.731,15.729-10.731S448.2-51.6,450.7-44.1ZM515.235,1.911c18.081,0,30.429-9.849,30.429-30.576v-2.2h-22.05v2.2c0,7.644-3.528,10-8.379,10s-8.379-2.352-8.379-10V-52.773h34.4V-72.618h-34.4V-98.343h-22.05v69.678C484.806-7.938,497.154,1.911,515.235,1.911Zm71.442,0c18.081,0,30.429-9.849,30.429-30.576v-2.2h-22.05v2.2c0,7.644-3.528,10-8.379,10s-8.379-2.352-8.379-10V-52.773h34.4V-72.618H578.3V-98.343h-22.05v69.678C556.248-7.938,568.6,1.911,586.677,1.911Zm77.175,0c22.932,0,39.1-16.17,39.1-38.22s-16.17-38.22-39.1-38.22-39.1,16.17-39.1,38.22S640.92,1.911,663.852,1.911Zm0-20.58c-10,0-16.758-7.2-16.758-17.64s6.762-17.64,16.758-17.64,16.758,7.2,16.758,17.64S673.848-18.669,663.852-18.669Z" transform="translate(480 272)" fill="url(#linear-gradient)"/>
    <g id="Final_Design_osu_color" data-name="Final Design osu! color" transform="translate(64.437 57.302)">
      <path id="Path_75" data-name="Path 75" d="M209.887,12a23.415,23.415,0,0,1,13.392,3.961,23.91,23.91,0,0,1,10.552,19.886V37.5c-15.565-3.594-36.024-3.217-56.887-.608a362.779,362.779,0,0,0-72.4,17.023C90.593,58.8,77.331,64.565,66.4,71.024V55.93a11.9,11.9,0,0,1,4.073-8.968A107.084,107.084,0,0,1,94.619,31.433C121.62,18.511,159.36,12.226,209.887,12ZM66.4,96.394V116.94c10.931-6.459,24.193-12.221,38.14-17.106a362.759,362.759,0,0,1,72.4-17.024c20.862-2.609,41.321-2.986,56.887.608V59.233c-.272-.1-.553-.189-.84-.283-11.53-3.727-30.7-4.136-53.452-1.292a341.9,341.9,0,0,0-68.083,16.009C91.606,80.62,75.632,88.66,66.4,96.394Zm167.432,8.755c-.272-.1-.553-.189-.84-.283-11.53-3.727-30.7-4.136-53.452-1.292a341.9,341.9,0,0,0-68.083,16.009C91.606,126.536,75.632,134.576,66.4,142.31v21.5c10.931-6.459,24.193-12.221,38.14-17.106a362.76,362.76,0,0,1,72.4-17.024c20.862-2.609,41.321-2.986,56.887.608Zm0,46.872c-.272-.1-.553-.189-.84-.283-11.53-3.727-30.7-4.136-53.452-1.292a341.9,341.9,0,0,0-68.083,16.009c-19.851,6.953-35.825,14.993-45.057,22.727v19.59c10.931-6.459,24.193-12.221,38.14-17.106a362.758,362.758,0,0,1,72.4-17.024c20.862-2.609,41.321-2.986,56.887.608Zm0,44.959c-.272-.1-.553-.189-.84-.283-11.53-3.727-30.7-4.136-53.452-1.292a341.9,341.9,0,0,0-68.083,16.009c-19.851,6.953-35.825,14.993-45.057,22.727v20.546c10.931-6.459,24.193-12.221,38.14-17.106a362.761,362.761,0,0,1,72.4-17.024c20.862-2.609,41.321-2.986,56.887.608Zm0,45.916c-.272-.1-.553-.189-.84-.283-11.53-3.727-30.7-4.136-53.452-1.292a341.9,341.9,0,0,0-68.083,16.009c-19.851,6.953-35.825,14.993-45.057,22.726v27.822a2.938,2.938,0,0,0,4.992,2.1c19.184-19.057,52.851-34.989,138.525-34.982a23.914,23.914,0,0,0,23.914-23.915Z" transform="translate(124.133 0)" fill-rule="evenodd" fill="url(#linear-gradient)"/>
      <path id="Path_76" data-name="Path 76" d="M27.915,12c50.527.224,88.267,6.539,115.268,19.431a106.849,106.849,0,0,1,24.139,15.559,11.875,11.875,0,0,1,4.08,8.968V307.89a3.07,3.07,0,0,1-5.186,2.242c-23.034-21.771-57.2-30.413-94.4-33.534a22.814,22.814,0,0,0,1.232-7.678V196.526c0-58.084,21.887-90.493,56.4-90.493,6.734,0,13.048,2.1,17.257,3.788,10.943,2.1,18.1-2.525,20.2-12.206,2.1-10.1-2.525-17.257-13.048-19.782q-.713-.219-1.464-.456c-5.269-1.648-12-3.753-20.843-3.753-28.2,0-48.4,19.361-56.821,37.46H73.046V94.669c0-10.943-6.313-18.1-16.836-18.1s-16.836,7.155-16.836,18.1V268.92a23.881,23.881,0,0,0,.768,6.186q-6.105-.1-12.227-.1C14.283,275.009,4,264.105,4,249.652V35.841A23.914,23.914,0,0,1,14.522,15.985,23.433,23.433,0,0,1,27.915,12Z" transform="translate(0)" fill-rule="evenodd" fill="url(#linear-gradient)"/>
      <path id="Path_77" data-name="Path 77" d="M231.87,16.787H216.042V252.012h15.383a23.908,23.908,0,0,0,2.406-10.456V26.325A23.953,23.953,0,0,0,231.87,16.787ZM66.4,280.238H84.316V45.014H66.481a11.881,11.881,0,0,0-.081,1.392Z" transform="translate(124.133 9.524)" fill-rule="evenodd" fill="url(#linear-gradient)"/>
    </g>
  </g>
</svg>
