<svg width="64" height="64" viewBox="0 0 128 128" fill="none" xmlns="http://www.w3.org/2000/svg">
<path fill-rule="evenodd" clip-rule="evenodd" d="M114.4 12.0002C115.993 11.9758 117.556 12.438 118.88 13.3252C119.969 14.059 120.861 15.0498 121.477 16.2101C122.092 17.3703 122.413 18.6642 122.41 19.9777V20.5308C117.203 19.3285 110.359 19.4546 103.38 20.3274C95.4006 21.3252 86.7429 23.3658 79.1588 26.0221C74.4932 27.6563 70.0568 29.5838 66.4 31.7445V26.6952C66.3999 26.1268 66.5214 25.5651 66.7564 25.0476C66.9914 24.5302 67.3345 24.069 67.7625 23.6952C70.2096 21.6088 72.9265 19.8615 75.84 18.5002C84.8725 14.1777 97.4975 12.0752 114.4 12.0002ZM66.4 40.2313V47.1045C70.0568 44.9438 74.4932 43.0163 79.1588 41.3822C86.7429 38.7258 95.4006 36.6852 103.38 35.6874C110.359 34.8146 117.203 34.6885 122.41 35.8908V27.8C122.319 27.7682 122.225 27.7367 122.129 27.7054C118.272 26.4585 111.859 26.3217 104.248 27.2733C96.7655 28.209 88.5922 30.1351 81.4727 32.6286C74.832 34.9546 69.4882 37.6442 66.4 40.2313ZM122.41 43.16C122.319 43.1282 122.225 43.0967 122.129 43.0654C118.272 41.8185 111.859 41.6817 104.248 42.6333C96.7655 43.569 88.5922 45.4951 81.4727 47.9886C74.832 50.3146 69.4882 53.0042 66.4 55.5913V62.7845C70.0568 60.6238 74.4932 58.6963 79.1588 57.0622C86.7429 54.4058 95.4006 52.3652 103.38 51.3674C110.359 50.4946 117.203 50.3685 122.41 51.5708V43.16ZM122.41 58.84C122.319 58.8082 122.225 58.7767 122.129 58.7454C118.272 57.4985 111.859 57.3617 104.248 58.3133C96.7655 59.249 88.5922 61.1751 81.4727 63.6686C74.832 65.9946 69.4882 68.6842 66.4 71.2713V77.8245C70.0568 75.6638 74.4932 73.7363 79.1588 72.1022C86.7429 69.4458 95.4006 67.4052 103.38 66.4074C110.359 65.5346 117.203 65.4085 122.41 66.6108V58.84ZM122.41 73.88C122.319 73.8482 122.225 73.8167 122.129 73.7854C118.272 72.5385 111.859 72.4017 104.248 73.3533C96.7655 74.289 88.5922 76.2151 81.4727 78.7086C74.832 81.0346 69.4882 83.7242 66.4 86.3113V93.1845C70.0568 91.0238 74.4932 89.0963 79.1588 87.4622C86.7429 84.8058 95.4006 82.7652 103.38 81.7674C110.359 80.8946 117.203 80.7685 122.41 81.9708V73.88ZM122.41 89.24C122.319 89.2082 122.225 89.1767 122.129 89.1454C118.272 87.8985 111.859 87.7617 104.248 88.7133C96.7655 89.649 88.5922 91.5751 81.4727 94.0686C74.832 96.3946 69.4882 99.0842 66.4 101.671V110.978C66.3998 111.171 66.4569 111.36 66.5639 111.522C66.6709 111.683 66.8231 111.809 67.0015 111.884C67.1799 111.959 67.3764 111.98 67.5665 111.943C67.7566 111.907 67.9317 111.816 68.07 111.68C74.4875 105.305 85.75 99.9752 114.41 99.9777C116.532 99.9777 118.567 99.1348 120.067 97.6345C121.567 96.1342 122.41 94.0994 122.41 91.9777V89.24Z" fill="url(#paint0_linear)"/>
<path fill-rule="evenodd" clip-rule="evenodd" d="M12 12C28.9025 12.075 41.5275 14.1875 50.56 18.5C53.4736 19.8637 56.1898 21.6145 58.635 23.705C59.064 24.0782 59.4078 24.5392 59.6433 25.0567C59.8788 25.5743 60.0004 26.1363 60 26.705V110.982C60.001 111.184 59.9427 111.381 59.8325 111.55C59.7224 111.718 59.5651 111.851 59.3802 111.931C59.1954 112.01 58.9911 112.034 58.7929 111.999C58.5946 111.964 58.411 111.871 58.265 111.732C50.5596 104.449 39.1302 101.558 26.6855 100.514C26.9562 99.7555 27.0976 98.893 27.0976 97.9456V73.728C27.0976 54.2976 34.4192 43.456 45.9648 43.456C48.2176 43.456 50.3296 44.16 51.7376 44.7232C55.3984 45.4272 57.792 43.8784 58.496 40.64C59.2 37.2608 57.6512 34.8672 54.1312 34.0224C53.9722 33.9735 53.809 33.9224 53.6413 33.87C51.8786 33.3188 49.626 32.6144 46.6688 32.6144C37.2352 32.6144 30.4768 39.0912 27.6608 45.1456H27.0976V39.6544C27.0976 35.9936 24.9856 33.6 21.4656 33.6C17.9456 33.6 15.8336 35.9936 15.8336 39.6544V97.9456C15.8336 98.6911 15.9212 99.384 16.0904 100.015C14.7288 99.9922 13.3642 99.9825 12 99.9825C7.44001 99.9825 4.00001 96.335 4.00001 91.5V19.975C3.99763 18.6641 4.3174 17.3728 4.93119 16.2145C5.54498 15.0562 6.43398 14.0665 7.52001 13.3325C8.84313 12.4431 10.4059 11.9783 12 12Z" fill="url(#paint1_linear)"/>
<path fill-rule="evenodd" clip-rule="evenodd" d="M121.754 16.7869L116.459 16.7869V95.4754H121.605C122.13 94.3956 122.41 93.2011 122.41 91.9777V19.9777C122.412 18.8781 122.188 17.7921 121.754 16.7869ZM66.4 104.918H72.3934V26.2295H66.4272C66.4091 26.3837 66.3999 26.5392 66.4 26.6952V104.918Z" fill="url(#paint2_linear)"/>
<defs>
<linearGradient id="paint0_linear" x1="94.405" y1="11.9992" x2="94.405" y2="111.961" gradientUnits="userSpaceOnUse">
<stop stop-color="#FF0040"/>
<stop offset="1" stop-color="#FF0064"/>
</linearGradient>
<linearGradient id="paint1_linear" x1="32" y1="11.9992" x2="32" y2="112.015" gradientUnits="userSpaceOnUse">
<stop stop-color="#FF0040"/>
<stop offset="1" stop-color="#FF0064"/>
</linearGradient>
<linearGradient id="paint2_linear" x1="94.405" y1="16.7869" x2="94.405" y2="104.918" gradientUnits="userSpaceOnUse">
<stop stop-color="#FF0040"/>
<stop offset="1" stop-color="#FF0064"/>
</linearGradient>
</defs>
</svg>
