<svg xmlns="http://www.w3.org/2000/svg" xmlns:xlink="http://www.w3.org/1999/xlink" width="222" height="61" viewBox="0 0 222 61">
  <defs>
    <linearGradient id="linear-gradient" x1="0.5" x2="0.5" y2="1" gradientUnits="objectBoundingBox">
      <stop offset="0" stop-color="#ff338d"/>
      <stop offset="1" stop-color="#f6a"/>
    </linearGradient>
    <clipPath id="clip-Final_logo_3">
      <rect width="222" height="61"/>
    </clipPath>
  </defs>
  <g id="Final_logo_3" data-name="Final logo – 3" clip-path="url(#clip-Final_logo_3)">
    <g id="Group_1" data-name="Group 1" transform="translate(-50.73 -30.777)">
      <path id="rūrusetto" d="M1.47,0h4.5V-8.43c0-1.98.9-2.58,2.16-2.58s2.16.6,2.16,2.58v.12h4.5V-8.4c-.03-4.68-2.7-6.81-6.66-6.81S1.47-13.05,1.47-8.43ZM19.14-17.64h9.6V-20.7h-9.6ZM23.94.39c4.38,0,7.32-2.55,7.32-7.53v-7.68h-4.5v7.68c0,2.34-1.14,3.33-2.82,3.33s-2.82-.99-2.82-3.33v-7.68h-4.5v7.68C16.62-2.13,19.56.39,23.94.39ZM34.2,0h4.5V-8.43c0-1.98.9-2.58,2.16-2.58s2.16.6,2.16,2.58v.12h4.5V-8.4c-.03-4.68-2.7-6.81-6.66-6.81S34.2-13.05,34.2-8.43ZM56.67.39c4.38,0,7.32-2.55,7.32-7.53v-7.68h-4.5v7.68c0,2.34-1.14,3.33-2.82,3.33s-2.82-.99-2.82-3.33v-7.68h-4.5v7.68C49.35-2.13,52.29.39,56.67.39Zm15.99,0c3.81,0,6.33-2.04,6.33-5.1,0-3.51-3.27-4.08-5.4-4.38-1.38-.21-2.46-.33-2.46-1.23,0-.6.45-1.17,1.56-1.17.9,0,1.5.39,1.62,1.08h4.38c-.09-2.67-2.37-4.8-6.06-4.8s-6.06,2.1-6.06,5.1c0,3.57,3.36,4.08,5.4,4.38,1.38.21,2.46.3,2.46,1.29,0,.63-.45,1.11-1.83,1.11-1.23,0-1.8-.39-1.83-1.17H66.33C66.39-1.65,68.85.39,72.66.39Zm16.05,0a7.458,7.458,0,0,0,7.47-5.1H91.53a3.164,3.164,0,0,1-2.82,1.08,3.078,3.078,0,0,1-3.3-2.52H96.6V-7.41a7.538,7.538,0,0,0-7.89-7.8,7.612,7.612,0,0,0-7.98,7.8A7.612,7.612,0,0,0,88.71.39ZM85.5-9a3.049,3.049,0,0,1,3.21-2.19A3.13,3.13,0,0,1,91.98-9ZM105.15.39c3.69,0,6.21-2.01,6.21-6.24V-6.3h-4.5v.45c0,1.56-.72,2.04-1.71,2.04s-1.71-.48-1.71-2.04v-4.92h7.02v-4.05h-7.02v-5.25h-4.5V-5.85C98.94-1.62,101.46.39,105.15.39Zm14.58,0c3.69,0,6.21-2.01,6.21-6.24V-6.3h-4.5v.45c0,1.56-.72,2.04-1.71,2.04s-1.71-.48-1.71-2.04v-4.92h7.02v-4.05h-7.02v-5.25h-4.5V-5.85C113.52-1.62,116.04.39,119.73.39Zm15.75,0a7.612,7.612,0,0,0,7.98-7.8,7.612,7.612,0,0,0-7.98-7.8,7.612,7.612,0,0,0-7.98,7.8A7.612,7.612,0,0,0,135.48.39Zm0-4.2a3.341,3.341,0,0,1-3.42-3.6,3.341,3.341,0,0,1,3.42-3.6,3.341,3.341,0,0,1,3.42,3.6A3.341,3.341,0,0,1,135.48-3.81Z" transform="translate(124 69.932)" fill="url(#linear-gradient)"/>
    </g>
    <g id="Final_Design_osu_color" data-name="Final Design osu! color" transform="translate(3.27 -1.896)">
      <path id="Path_72" data-name="Path 72" d="M87.747,12a3.484,3.484,0,0,1,1.992.589,3.557,3.557,0,0,1,1.57,2.959v.246a25.7,25.7,0,0,0-8.463-.09,53.972,53.972,0,0,0-10.772,2.533A32.48,32.48,0,0,0,66.4,20.781V18.535a1.771,1.771,0,0,1,.606-1.334A15.931,15.931,0,0,1,70.6,14.89C74.615,12.968,80.23,12.033,87.747,12ZM66.4,24.555v3.057a32.477,32.477,0,0,1,5.674-2.545,53.969,53.969,0,0,1,10.772-2.533,25.7,25.7,0,0,1,8.463.09v-3.6l-.125-.042a20.425,20.425,0,0,0-7.952-.192A50.866,50.866,0,0,0,73.1,21.174,22.782,22.782,0,0,0,66.4,24.555Zm24.91,1.3-.125-.042a20.425,20.425,0,0,0-7.952-.192A50.866,50.866,0,0,0,73.1,28.005a22.782,22.782,0,0,0-6.7,3.381v3.2a32.476,32.476,0,0,1,5.674-2.545,53.969,53.969,0,0,1,10.772-2.533,25.7,25.7,0,0,1,8.463.09Zm0,6.973-.125-.042a20.425,20.425,0,0,0-7.952-.192A50.866,50.866,0,0,0,73.1,34.978a22.782,22.782,0,0,0-6.7,3.381v2.914a32.476,32.476,0,0,1,5.674-2.545A53.969,53.969,0,0,1,82.846,36.2a25.7,25.7,0,0,1,8.463.09Zm0,6.689-.125-.042a20.425,20.425,0,0,0-7.952-.192A50.866,50.866,0,0,0,73.1,41.667a22.782,22.782,0,0,0-6.7,3.381v3.057a32.477,32.477,0,0,1,5.674-2.545,53.969,53.969,0,0,1,10.772-2.533,25.7,25.7,0,0,1,8.463.09Zm0,6.831-.125-.042a20.425,20.425,0,0,0-7.952-.192A50.866,50.866,0,0,0,73.1,48.5a22.786,22.786,0,0,0-6.7,3.381v4.139a.437.437,0,0,0,.743.312c2.854-2.835,7.863-5.206,20.609-5.2a3.558,3.558,0,0,0,3.558-3.558Z" transform="translate(-34.649 0)" fill-rule="evenodd" fill="url(#linear-gradient)"/>
      <path id="Path_73" data-name="Path 73" d="M7.558,12c7.517.033,13.132.973,17.149,2.891A15.9,15.9,0,0,1,28.3,17.205a1.767,1.767,0,0,1,.607,1.334V56.02a.457.457,0,0,1-.772.334c-3.427-3.239-8.51-4.525-14.045-4.989a3.394,3.394,0,0,0,.183-1.142V39.452c0-8.641,3.256-13.463,8.391-13.463a7.087,7.087,0,0,1,2.567.564,2.291,2.291,0,0,0,3.006-1.816A2.3,2.3,0,0,0,26.3,21.794l-.218-.068a9.8,9.8,0,0,0-3.1-.558,9.521,9.521,0,0,0-8.454,5.573h-.25V24.3a2.421,2.421,0,0,0-2.5-2.693,2.421,2.421,0,0,0-2.5,2.693V50.223a3.553,3.553,0,0,0,.114.92q-.908-.015-1.819-.014A3.59,3.59,0,0,1,4,47.356V15.546a3.558,3.558,0,0,1,1.565-2.954A3.486,3.486,0,0,1,7.558,12Z" transform="translate(0)" fill-rule="evenodd" fill="url(#linear-gradient)"/>
      <path id="Path_74" data-name="Path 74" d="M91.018,16.787H88.663v35h2.289a3.557,3.557,0,0,0,.358-1.556V18.206A3.564,3.564,0,0,0,91.018,16.787ZM66.4,55.982h2.665v-35H66.412a1.768,1.768,0,0,0-.012.207Z" transform="translate(-34.649 -2.658)" fill-rule="evenodd" fill="url(#linear-gradient)"/>
    </g>
  </g>
</svg>
