<?xml version="1.0" standalone="no"?>
<!DOCTYPE svg PUBLIC "-//W3C//DTD SVG 20010904//EN"
 "http://www.w3.org/TR/2001/REC-SVG-20010904/DTD/svg10.dtd">
<svg version="1.0" xmlns="http://www.w3.org/2000/svg"
 width="1000.000000pt" height="1000.000000pt" viewBox="0 0 1000.000000 1000.000000"
 preserveAspectRatio="xMidYMid meet">
<metadata>
Created by potrace 1.14, written by Peter Selinger 2001-2017
</metadata>
<g transform="translate(0.000000,1000.000000) scale(0.100000,-0.100000)"
fill="#000000" stroke="none">
<path d="M4603 9990 c-12 -5 -68 -12 -125 -15 -57 -3 -121 -8 -143 -11 -22 -4
-53 -8 -70 -10 -35 -4 -54 -9 -75 -17 -8 -3 -67 -15 -130 -27 -725 -133 -1452
-454 -2059 -910 -124 -93 -143 -109 -261 -210 -175 -150 -397 -371 -530 -530
-25 -29 -49 -58 -55 -64 -5 -6 -35 -42 -66 -81 -361 -454 -646 -978 -829
-1525 -51 -152 -119 -394 -134 -470 -2 -14 -14 -68 -25 -120 -11 -52 -25 -124
-31 -160 -5 -36 -12 -76 -14 -90 -6 -35 -15 -106 -22 -170 -3 -30 -7 -66 -10
-80 -25 -155 -25 -864 1 -1000 10 -53 13 -170 5 -170 -5 0 -7 -8 -5 -19 11
-60 18 -98 18 -113 1 -10 4 -18 7 -18 3 0 5 -17 5 -38 0 -20 2 -41 6 -47 3 -5
9 -26 12 -45 9 -52 17 -91 28 -135 6 -22 12 -51 14 -65 1 -14 4 -25 5 -25 1 0
3 -7 5 -15 2 -8 8 -35 15 -60 6 -25 12 -51 12 -57 1 -7 6 -13 11 -13 6 0 8 -3
4 -6 -3 -3 1 -27 9 -52 8 -26 17 -58 20 -72 4 -21 18 -63 42 -130 3 -8 6 -19
8 -25 3 -15 70 -195 85 -230 6 -16 13 -34 14 -40 2 -5 13 -32 25 -60 12 -27
29 -66 37 -85 8 -19 23 -52 34 -72 10 -21 15 -38 11 -38 -4 0 -2 -4 3 -8 15
-10 35 -49 35 -67 0 -8 5 -15 10 -15 6 0 10 -9 10 -19 0 -11 3 -21 7 -23 5 -1
23 -34 42 -71 19 -37 38 -70 42 -73 5 -3 9 -14 9 -25 0 -10 4 -19 8 -19 5 0
16 -16 25 -34 38 -80 284 -453 342 -520 14 -15 25 -30 25 -33 0 -3 32 -43 70
-90 39 -47 70 -90 70 -96 0 -6 3 -7 7 -4 3 4 14 -4 22 -17 65 -99 430 -460
621 -615 25 -20 47 -38 50 -41 24 -24 101 -80 109 -80 6 0 11 -4 11 -9 0 -5
16 -19 35 -31 20 -12 41 -27 48 -34 6 -6 55 -40 107 -75 52 -35 98 -68 102
-75 4 -6 8 -7 8 -2 0 5 8 2 18 -6 16 -14 90 -60 162 -101 19 -11 49 -28 65
-38 17 -10 55 -31 85 -47 30 -16 80 -42 110 -58 64 -34 217 -105 365 -169 17
-8 48 -20 70 -28 22 -8 49 -18 60 -23 11 -4 22 -8 25 -9 3 -1 13 -5 23 -8 9
-4 25 -10 35 -14 9 -3 19 -7 22 -8 3 -1 12 -4 20 -8 29 -11 205 -67 225 -72
11 -2 58 -15 105 -29 47 -14 108 -30 135 -36 28 -7 57 -13 65 -15 51 -12 212
-45 244 -51 21 -3 48 -8 60 -10 11 -2 41 -6 66 -9 25 -3 56 -8 70 -10 171 -31
321 -40 685 -40 301 0 461 6 560 20 17 3 46 7 65 9 108 14 143 19 220 33 47 8
96 17 110 19 123 20 483 113 615 159 22 8 81 28 130 45 50 17 99 35 110 40 11
5 76 32 145 60 315 131 705 350 985 553 87 64 297 230 349 277 129 116 173
157 285 270 608 613 1056 1397 1276 2235 15 55 29 111 31 125 3 14 9 41 14 60
23 88 70 362 85 500 4 30 8 71 11 90 26 229 26 786 -1 1005 -2 17 -6 57 -10
89 -3 32 -7 62 -9 65 -2 3 -7 36 -10 74 -4 37 -9 73 -11 80 -2 6 -7 29 -10 50
-10 70 -50 253 -89 412 -118 471 -386 1067 -679 1505 -46 69 -193 271 -230
316 -314 383 -595 656 -944 917 -351 262 -808 513 -1198 658 -33 12 -73 28
-90 35 -81 34 -458 145 -545 160 -14 3 -33 7 -42 10 -9 3 -27 7 -40 9 -13 3
-43 9 -68 15 -56 13 -312 58 -360 63 -19 2 -66 7 -105 11 -38 4 -81 10 -95 13
-42 10 -814 12 -837 3z"/>
</g>
</svg>
