<svg width="100" height="100" viewBox="0 0 100 100" fill="none" xmlns="http://www.w3.org/2000/svg">
<g clip-path="url(#clip0)">
<rect width="100" height="100" fill="#161616"/>
<circle cx="50" cy="50" r="35" stroke="#FF0040" stroke-width="4"/>
<path d="M46.3946 31.3452C42.5623 32.0858 39.051 33.9889 36.3384 36.7955C33.6257 39.6021 31.8432 43.176 31.2334 47.0314C30.6235 50.8867 31.2159 54.8364 32.9299 58.3432C34.6439 61.85 37.3963 64.7438 40.813 66.6312C44.2296 68.5185 48.1447 69.3078 52.0257 68.8917C55.9067 68.4755 59.5654 66.8742 62.5043 64.3053C65.4431 61.7365 67.5195 58.3249 68.451 54.5344C69.3826 50.7439 69.1241 46.7585 67.7107 43.1201L63.4063 44.7922C64.4761 47.5463 64.6718 50.5631 63.9667 53.4324C63.2615 56.3016 61.6898 58.884 59.4652 60.8285C57.2406 62.773 54.4712 63.9852 51.5334 64.3002C48.5956 64.6152 45.6321 64.0177 43.0458 62.5891C40.4596 61.1605 38.3761 58.9699 37.0787 56.3154C35.7812 53.6609 35.3328 50.6712 35.7945 47.7529C36.2561 44.8345 37.6053 42.1292 39.6587 40.0047C41.7121 37.8802 44.37 36.4397 47.2709 35.8791L46.3946 31.3452Z" fill="#FF66AA"/>
<line x1="46.8167" y1="29.8229" x2="43.5509" y2="44.463" stroke="#161616"/>
<line x1="68.8229" y1="41.1247" x2="60.5719" y2="50.5545" stroke="#161616"/>
<circle cx="46.3874" cy="65.3875" r="2" transform="rotate(12.5755 46.3874 65.3875)" fill="#161616"/>
<circle cx="36.6425" cy="58.645" r="2" transform="rotate(12.5755 36.6425 58.645)" fill="#161616"/>
<path d="M37.2563 57.4876L40.2184 57.616" stroke="#FF66AA" stroke-width="0.953463"/>
<path d="M46 63.3148L48.948 63" stroke="#FF66AA" stroke-width="0.953463"/>
<line x1="39.7951" y1="56.3363" x2="37.37" y2="59.0044" stroke="#161616"/>
<line x1="48.416" y1="61.2774" x2="46.416" y2="64.2774" stroke="#161616"/>
<circle cx="35" cy="59" r="1" fill="#FF66AA"/>
<circle cx="47" cy="67" r="1" fill="#FF66AA"/>
<path d="M46.8746 34.668L66.6455 37.6866" stroke="#FF66AA" stroke-width="0.953463"/>
</g>
<defs>
<clipPath id="clip0">
<rect width="100" height="100" fill="white"/>
</clipPath>
</defs>
</svg>
