<svg xmlns="http://www.w3.org/2000/svg" xmlns:xlink="http://www.w3.org/1999/xlink" width="372" height="372" viewBox="0 0 372 372">
  <defs>
    <clipPath id="clip-Logo_3">
      <rect width="372" height="372"/>
    </clipPath>
  </defs>
  <g id="Logo_3" data-name="Logo – 3" clip-path="url(#clip-Logo_3)">
    <g id="Final_Design_osu_color" data-name="Final Design osu! color" transform="translate(18.965 36.293)">
      <path id="Path_75" data-name="Path 75" d="M198.579,12a21.569,21.569,0,0,1,12.337,3.649,22.026,22.026,0,0,1,9.721,18.319v1.523c-14.339-3.311-33.185-2.964-52.4-.56a334.19,334.19,0,0,0-66.7,15.682C88.687,55.115,76.47,60.422,66.4,66.372v-13.9a10.965,10.965,0,0,1,3.752-8.261A98.645,98.645,0,0,1,92.4,29.9C117.268,18,152.034,12.208,198.579,12ZM66.4,89.743V108.67c10.07-5.95,22.287-11.258,35.134-15.758a334.172,334.172,0,0,1,66.7-15.682c19.218-2.4,38.065-2.751,52.4.56V55.51c-.251-.088-.509-.174-.774-.261-10.621-3.434-28.281-3.81-49.24-1.19a314.954,314.954,0,0,0-62.717,14.747C89.62,75.212,74.9,82.619,66.4,89.743Zm154.237,8.065c-.251-.088-.509-.174-.774-.261-10.621-3.434-28.281-3.81-49.24-1.19A314.953,314.953,0,0,0,107.906,111.1C89.62,117.51,74.9,124.916,66.4,132.04v19.808c10.07-5.95,22.287-11.258,35.134-15.758a334.172,334.172,0,0,1,66.7-15.682c19.218-2.4,38.065-2.751,52.4.56Zm0,43.179c-.251-.088-.509-.174-.774-.261-10.621-3.434-28.281-3.81-49.24-1.19a314.956,314.956,0,0,0-62.717,14.747c-18.287,6.405-33,13.812-41.506,20.936v18.046c10.07-5.95,22.287-11.258,35.134-15.758a334.171,334.171,0,0,1,66.7-15.682c19.218-2.4,38.065-2.751,52.4.56Zm0,41.416c-.251-.088-.509-.174-.774-.26-10.621-3.434-28.281-3.81-49.24-1.19A314.956,314.956,0,0,0,107.906,195.7C89.62,202.1,74.9,209.511,66.4,216.635v18.927c10.07-5.95,22.287-11.258,35.134-15.758a334.174,334.174,0,0,1,66.7-15.682c19.218-2.4,38.065-2.751,52.4.56Zm0,42.3c-.251-.088-.509-.174-.774-.261-10.621-3.434-28.281-3.81-49.24-1.19A314.956,314.956,0,0,0,107.906,238C89.62,244.4,74.9,251.808,66.4,258.932v25.629a2.706,2.706,0,0,0,4.6,1.933c17.672-17.555,48.686-32.232,127.608-32.225a22.029,22.029,0,0,0,22.03-22.03Z" transform="translate(109.433 0)" fill-rule="evenodd"/>
      <path id="Path_76" data-name="Path 76" d="M26.03,12c46.545.207,81.311,6.024,106.184,17.9a98.428,98.428,0,0,1,22.236,14.333,10.939,10.939,0,0,1,3.759,8.261V284.572a2.828,2.828,0,0,1-4.778,2.065c-21.219-20.056-52.692-28.017-86.962-30.891a21.016,21.016,0,0,0,1.135-7.073V181.984c0-53.506,20.162-83.361,51.955-83.361a43.882,43.882,0,0,1,15.9,3.49c10.081,1.939,16.672-2.326,18.611-11.244,1.939-9.305-2.326-15.9-12.02-18.223q-.657-.2-1.349-.42c-4.854-1.518-11.057-3.458-19.2-3.458-25.978,0-44.589,17.835-52.343,34.508H67.6V88.154c0-10.081-5.816-16.672-15.509-16.672S36.587,78.073,36.587,88.154V248.673a22,22,0,0,0,.707,5.7q-5.624-.094-11.264-.09C13.473,254.282,4,244.238,4,230.923V33.962a22.03,22.03,0,0,1,9.693-18.292A21.587,21.587,0,0,1,26.03,12Z" transform="translate(0)" fill-rule="evenodd"/>
      <path id="Path_77" data-name="Path 77" d="M218.83,16.787H204.249V233.474H218.42a22.023,22.023,0,0,0,2.217-9.632V25.574A22.065,22.065,0,0,0,218.83,16.787ZM66.4,259.477H82.9V42.789H66.475a10.945,10.945,0,0,0-.075,1.282Z" transform="translate(109.433 8.396)" fill-rule="evenodd"/>
    </g>
  </g>
</svg>
